HIERARCHY
ROOT Hips
{
    OFFSET 0.000000 0.000000 0.000000
    CHANNELS 6 Xposition Yposition Zposition Zrotation Xrotation Yrotation
    JOINT Spine
    {
        OFFSET -0.000000 14.517291 0.000000
        CHANNELS 3 Zrotation Xrotation Yrotation
        JOINT Spine1
        {
            OFFSET -0.000000 37.558300 0.000000
            CHANNELS 3 Zrotation Xrotation Yrotation
            JOINT Neck
            {
                OFFSET -0.000000 37.404057 3.400369
                CHANNELS 3 Zrotation Xrotation Yrotation
                JOINT Head
                {
                    OFFSET -0.000000 24.785618 -3.540803
                    CHANNELS 3 Zrotation Xrotation Yrotation
                    End Site
                    {
                        OFFSET -0.000000 35.408028 0.000000
                    }
                }
            }
            JOINT LeftShoulder
            {
                OFFSET 6.992933 33.973492 -0.192664
                CHANNELS 3 Zrotation Xrotation Yrotation
                JOINT LeftArm
                {
                    OFFSET 21.527611 0.000000 0.000000
                    CHANNELS 3 Zrotation Xrotation Yrotation
                    JOINT LeftForeArm
                    {
                        OFFSET 56.353916 0.000000 0.000000
                        CHANNELS 3 Zrotation Xrotation Yrotation
                        JOINT LeftHand
                        {
                            OFFSET 47.774071 0.000000 0.000000
                            CHANNELS 3 Zrotation Xrotation Yrotation
                            End Site
                            {
                                OFFSET 26.556021 0.000000 0.000000
                            }
                        }
                    }
                }
            }
            JOINT RightShoulder
            {
                OFFSET -7.065357 33.973492 -0.192664
                CHANNELS 3 Zrotation Xrotation Yrotation
                JOINT RightArm
                {
                    OFFSET -21.527611 0.000000 0.000000
                    CHANNELS 3 Zrotation Xrotation Yrotation
                    JOINT RightForeArm
                    {
                        OFFSET -56.353916 0.000000 0.000000
                        CHANNELS 3 Zrotation Xrotation Yrotation
                        JOINT RightHand
                        {
                            OFFSET -47.774071 0.000000 0.000000
                            CHANNELS 3 Zrotation Xrotation Yrotation
                            End Site
                            {
                                OFFSET -26.556021 0.000000 0.000000
                            }
                        }
                    }
                }
            }
        }
    }
    JOINT LeftUpLeg
    {
        OFFSET 17.704014 0.000000 0.000000
        CHANNELS 3 Zrotation Xrotation Yrotation
        JOINT LeftLeg
        {
            OFFSET -0.000000 -81.181816 0.000000
            CHANNELS 3 Zrotation Xrotation Yrotation
            JOINT LeftFoot
            {
                OFFSET -0.000000 -62.821102 0.000000
                CHANNELS 3 Zrotation Xrotation Yrotation
                JOINT LeftToeBase
                {
                    OFFSET -0.000000 -11.507608 26.556021
                    CHANNELS 3 Zrotation Xrotation Yrotation
                    End Site
                    {
                        OFFSET -0.000000 0.000000 7.081605
                    }
                }
            }
        }
    }
    JOINT RightUpLeg
    {
        OFFSET -17.704014 0.000000 0.000000
        CHANNELS 3 Zrotation Xrotation Yrotation
        JOINT RightLeg
        {
            OFFSET -0.000000 -81.181816 0.000000
            CHANNELS 3 Zrotation Xrotation Yrotation
            JOINT RightFoot
            {
                OFFSET -0.000000 -62.821102 0.000000
                CHANNELS 3 Zrotation Xrotation Yrotation
                JOINT RightToeBase
                {
                    OFFSET -0.000000 -11.507608 26.556021
                    CHANNELS 3 Zrotation Xrotation Yrotation
                    End Site
                    {
                        OFFSET -0.000000 0.000000 7.081605
                    }
                }
            }
        }
    }
}
MOTION
Frames:    9
Frame Time:    0.008333
30.214310    150.605988    -100.659882    1.127553    -8.283781    36.899746    -0.586069    2.192820    -1.569299    -4.812893    2.839295    -0.406857    5.588384    3.711819    -14.914899    12.046165    1.179448    -14.623423    6.276470    7.723316    -20.316648    -24.472488    25.298542    -64.496315    2.257306    -13.529000    -94.810989    11.845402    -12.280952    -11.295379    -7.799263    -0.851095    -1.623089    25.281073    -24.740887    54.926170    -20.136082    -11.742058    60.045170    -7.493920    -2.506425    36.573833    3.374607    -5.985768    -8.222651    -16.977909    47.912231    -15.607307    23.902922    -27.714420    47.741474    0.000000    0.000000    0.000000    -6.627904    -30.402195    -10.093678    16.449526    29.886951    -14.161480    2.229797    14.569483    -15.315929    0.000000    0.000000    0.000000    
30.219528    150.624344    -100.650192    1.121205    -8.260995    36.908283    -0.588152    2.201987    -1.584357    -4.811638    2.834935    -0.412238    5.635262    3.841513    -14.939840    12.064118    0.973540    -14.624533    6.308485    7.758236    -20.344933    -24.481386    25.310354    -64.536224    2.237039    -13.576295    -94.769386    11.840570    -12.346989    -11.252447    -7.768620    -0.834243    -1.652393    25.277397    -24.737322    54.924473    -20.143496    -11.755324    60.134125    -7.451450    -2.478566    36.575054    3.374287    -5.988138    -8.153893    -16.900404    47.889126    -15.685645    23.880989    -27.701305    47.695168    0.000000    0.000000    0.000000    -6.653010    -30.416981    -10.166852    16.430073    29.899536    -14.166772    2.264399    14.586050    -15.279289    0.000000    0.000000    0.000000    
30.220932    150.643509    -100.644936    1.112882    -8.237084    36.915089    -0.593466    2.208239    -1.599096    -4.799962    2.833514    -0.417371    5.663022    3.817908    -14.940273    12.026407    0.991815    -14.636218    6.332763    7.782937    -20.368235    -24.477276    25.327330    -64.578629    2.233911    -13.613955    -94.732811    11.902287    -12.389896    -11.195193    -7.742128    -0.825539    -1.677985    25.264872    -24.739796    54.912861    -20.178936    -11.736775    60.213329    -7.456921    -2.423851    36.597870    3.381021    -5.994514    -8.100903    -16.857586    47.860249    -15.738813    23.852034    -27.697050    47.656170    0.000000    0.000000    0.000000    -6.669985    -30.433977    -10.274930    16.376749    29.919481    -14.122453    2.260077    14.603428    -15.216471    0.000000    0.000000    0.000000    
30.221930    150.665436    -100.642334    1.101341    -8.210436    36.928692    -0.592483    2.206614    -1.621713    -4.790318    2.833516    -0.425143    5.680192    3.806284    -14.940516    11.994059    1.000818    -14.644231    6.340206    7.788761    -20.389786    -24.463924    25.373604    -64.599342    2.220551    -13.666636    -94.729317    11.938870    -12.456160    -11.150846    -7.718725    -0.827534    -1.680902    25.242390    -24.743860    54.873077    -20.198736    -11.721630    60.309326    -7.447682    -2.369776    36.599884    3.392627    -6.004206    -8.060784    -16.834621    47.818390    -15.773037    23.827581    -27.678665    47.613255    0.000000    0.000000    0.000000    -6.688901    -30.441668    -10.415164    16.312565    29.919416    -14.101274    2.248076    14.633781    -15.115781    0.000000    0.000000    0.000000    
30.216091    150.683472    -100.640297    1.085223    -8.186236    36.941151    -0.591168    2.209105    -1.639715    -4.779237    2.828101    -0.431621    5.718960    3.789834    -14.941601    11.948915    1.008955    -14.657412    6.359983    7.798061    -20.399157    -24.445974    25.405930    -64.634239    2.213414    -13.698420    -94.734924    11.962619    -12.496767    -11.142676    -7.702030    -0.804119    -1.706125    25.230873    -24.755301    54.858368    -20.221947    -11.717605    60.386639    -7.419045    -2.328398    36.658401    3.415609    -6.024099    -8.020488    -16.833609    47.791580    -15.790315    23.805080    -27.666666    47.572460    0.000000    0.000000    0.000000    -6.694597    -30.446388    -10.560804    16.234745    29.920980    -14.022384    2.249338    14.639380    -15.039768    0.000000    0.000000    0.000000    
30.214067    150.702911    -100.640358    1.070327    -8.159739    36.956539    -0.595247    2.204171    -1.662484    -4.761801    2.822994    -0.439897    5.741228    3.774142    -14.950728    11.926343    1.034694    -14.675978    6.372721    7.800310    -20.414732    -24.444441    25.435833    -64.641556    2.207238    -13.708827    -94.758080    11.973161    -12.514566    -11.149974    -7.678314    -0.797168    -1.718641    25.204676    -24.770983    54.828846    -20.217690    -11.689609    60.469051    -7.392249    -2.276850    36.709431    3.432027    -6.042476    -7.972321    -16.808027    47.763546    -15.853893    23.792612    -27.646746    47.548416    0.000000    0.000000    0.000000    -6.698986    -30.446581    -10.704740    16.148785    29.908224    -13.962029    2.242887    14.645469    -14.964995    0.000000    0.000000    0.000000    
30.210220    150.720367    -100.645493    1.060438    -8.136380    36.969055    -0.591555    2.201097    -1.686438    -4.748392    2.834263    -0.447762    5.725676    3.749270    -14.951727    11.939250    1.059728    -14.677426    6.374050    7.785596    -20.417439    -24.433916    25.465479    -64.642212    2.240949    -13.716491    -94.790436    11.932364    -12.485507    -11.191769    -7.688911    -0.833893    -1.717336    25.181383    -24.749338    54.765526    -20.233570    -11.680217    60.550644    -7.376758    -2.234948    36.736595    3.457362    -6.055904    -7.939206    -16.833258    47.724026    -15.870906    23.797733    -27.611956    47.512081    0.000000    0.000000    0.000000    -6.699539    -30.443682    -10.812541    16.075674    29.885408    -13.936630    2.210479    14.658772    -14.872597    0.000000    0.000000    0.000000    
30.211058    150.738388    -100.646591    1.054576    -8.110130    36.981663    -0.592863    2.189751    -1.709668    -4.740717    2.839704    -0.455425    5.721862    3.753392    -14.953552    11.961860    1.062331    -14.676035    6.384490    7.781999    -20.422421    -24.430176    25.479591    -64.634781    2.246567    -13.701621    -94.841408    11.940768    -12.464390    -11.204400    -7.688017    -0.837804    -1.710751    25.156584    -24.755167    54.723164    -20.226061    -11.668108    60.616436    -7.331354    -2.196751    36.740299    3.474253    -6.057076    -7.901764    -16.846672    47.663296    -15.891241    23.800426    -27.573816    47.473942    0.000000    0.000000    0.000000    -6.703699    -30.437277    -10.902694    16.010485    29.858822    -13.891905    2.198991    14.653719    -14.819022    0.000000    0.000000    0.000000    
30.210987    150.754700    -100.650169    1.051376    -8.083646    36.989590    -0.592162    2.176437    -1.723484    -4.734435    2.843664    -0.460057    5.703443    3.763360    -14.959444    11.985619    1.076475    -14.677943    6.392052    7.780010    -20.430536    -24.405886    25.487919    -64.633446    2.281242    -13.687536    -94.889648    11.945343    -12.413253    -11.218833    -7.696103    -0.843478    -1.712783    25.147850    -24.779505    54.688141    -20.192421    -11.613873    60.679977    -7.337644    -2.150475    36.765625    3.486947    -6.057218    -7.860356    -16.852869    47.609169    -15.919730    23.818420    -27.540745    47.439545    0.000000    0.000000    0.000000    -6.707647    -30.425617    -10.956402    15.968738    29.813215    -13.844872    2.151772    14.646657    -14.783769    0.000000    0.000000    0.000000    
